<svg width="22" height="25" viewBox="0 0 22 25" fill="none" xmlns="http://www.w3.org/2000/svg">
<path d="M11 2C11.9946 2 12.9484 2.39509 13.6517 3.09835C14.3549 3.80161 14.75 4.75544 14.75 5.75V6.5H7.25V5.75C7.25 4.75544 7.64509 3.80161 8.34835 3.09835C9.05161 2.39509 10.0054 2 11 2ZM16.25 6.5V5.75C16.25 4.35761 15.6969 3.02226 14.7123 2.03769C13.7277 1.05312 12.3924 0.5 11 0.5C9.60761 0.5 8.27226 1.05312 7.28769 2.03769C6.30312 3.02226 5.75 4.35761 5.75 5.75V6.5H0.5V21.5C0.5 22.2956 0.816071 23.0587 1.37868 23.6213C1.94129 24.1839 2.70435 24.5 3.5 24.5H18.5C19.2956 24.5 20.0587 24.1839 20.6213 23.6213C21.1839 23.0587 21.5 22.2956 21.5 21.5V6.5H16.25ZM2 8H20V21.5C20 21.8978 19.842 22.2794 19.5607 22.5607C19.2794 22.842 18.8978 23 18.5 23H3.5C3.10218 23 2.72064 22.842 2.43934 22.5607C2.15804 22.2794 2 21.8978 2 21.5V8Z" fill="black"/>
</svg>
